<svg xmlns="http://www.w3.org/2000/svg" version="1.1" xmlns:xlink="http://www.w3.org/1999/xlink" xmlns:svgjs="http://svgjs.dev/svgjs" width="2000" height="1500" viewBox="0 0 2000 1500"><rect width="2000" height="1500" fill="#2e2e33"></rect><g transform="matrix(0.75,0,0,0.75,249.090909090909,278.9854838709681)"><svg viewBox="0 0 396 248" data-background-color="#2e2e33" preserveAspectRatio="xMidYMid meet" height="1252" width="2000" xmlns="http://www.w3.org/2000/svg" xmlns:xlink="http://www.w3.org/1999/xlink"><g id="tight-bounds" transform="matrix(1,0,0,1,0.2400000000000091,0.39999999999994884)"><svg viewBox="0 0 395.52 247.2" height="247.2" width="395.52"><rect width="395.52" height="247.2000000000001" fill="url(#65f815c3-4de4-4549-b4d7-02c5d48dad7a)" mask="url(#d4013187-e438-4867-b47e-e75847db8f60)" data-fill-palette-color="tertiary"></rect><g><svg></svg></g><g><svg viewBox="0 0 395.52 247.2" height="247.2" width="395.52"><g transform="matrix(1,0,0,1,75.54432000000001,50.75621721854306)"><svg viewBox="0 0 244.43135999999996 145.68756556291387" height="145.68756556291387" width="244.43135999999996"><g><svg viewBox="0 0 244.43135999999996 145.68756556291387" height="145.68756556291387" width="244.43135999999996"><g><svg viewBox="0 0 244.43136 145.6875655629139" height="145.68756556291387" width="244.43135999999996"><g><svg viewBox="0 0 244.43136 145.6875655629139" height="145.6875655629139" width="244.43136"><g id="textblocktransform"><svg viewBox="0 0 244.43136 145.6875655629139" height="145.6875655629139" width="244.43136" id="textblock"><g><svg viewBox="0 0 244.43136 145.6875655629139" height="145.6875655629139" width="244.43136"><g transform="matrix(1,0,0,1,0,0)"><svg width="244.43136" viewBox="4.45 -30.95 52.849999999999994 31.5" height="145.6875655629139" data-palette-color="url(#fbbd61bd-c8cc-4173-bad4-0af7aba1999f)"></svg></g></svg></g></svg></g></svg></g></svg></g></svg></g></svg></g><g><path d="M245.816 0c68.262 0 123.6 55.338 123.6 123.6 0 68.262-55.338 123.6-123.6 123.6-32.766 0-62.555-12.75-84.675-33.56h9.911c20.276 16.855 46.336 26.99 74.764 26.991 64.634 0 117.031-52.397 117.031-117.031 0-64.634-52.397-117.031-117.031-117.031-28.428 0-54.488 10.136-74.764 26.991l-9.911 0c22.12-20.809 51.908-33.56 84.675-33.56z" fill="url(#65f815c3-4de4-4549-b4d7-02c5d48dad7a)" stroke="transparent" data-fill-palette-color="tertiary"></path></g></svg></g><defs></defs><mask id="182e506b-8a7f-44b9-9a36-228f411460e9"><g id="SvgjsG2394"><svg viewBox="0 0 395.52 247.2" height="247.2" width="395.52"><g><svg></svg></g><g><svg viewBox="0 0 395.52 247.2" height="247.2" width="395.52"><g transform="matrix(1,0,0,1,75.54432000000001,50.75621721854306)"><svg viewBox="0 0 244.43135999999996 145.68756556291387" height="145.68756556291387" width="244.43135999999996"><g><svg viewBox="0 0 244.43135999999996 145.68756556291387" height="145.68756556291387" width="244.43135999999996"><g><svg viewBox="0 0 244.43136 145.6875655629139" height="145.68756556291387" width="244.43135999999996"><g><svg viewBox="0 0 244.43136 145.6875655629139" height="145.6875655629139" width="244.43136"><g id="SvgjsG2393"><svg viewBox="0 0 244.43136 145.6875655629139" height="145.6875655629139" width="244.43136" id="SvgjsSvg2392"><g><svg viewBox="0 0 244.43136 145.6875655629139" height="145.6875655629139" width="244.43136"><g transform="matrix(1,0,0,1,0,0)"><svg width="244.43136" viewBox="4.45 -30.95 52.849999999999994 31.5" height="145.6875655629139" data-palette-color="url(#fbbd61bd-c8cc-4173-bad4-0af7aba1999f)"><path d="M7.25-17.45L21-17.45 21-14.15 7.25-14.15 7.25-17.45ZM15.25-14.15L15.25-14.15 16.85-16.65Q20.25-16.65 22.5-15.53 24.75-14.4 25.88-12.55 27-10.7 27-8.4L27-8.4Q27-3.85 23.73-1.65 20.45 0.55 14.4 0.55L14.4 0.55Q13.05 0.55 11.7 0.48 10.35 0.4 9.05 0.2 7.75 0 6.55-0.3L6.55-0.3Q4.45-0.9 4.45-2.6L4.45-2.6 4.45-28.2Q4.45-29 4.88-29.45 5.3-29.9 6.1-30.1L6.1-30.1Q7.8-30.6 9.73-30.78 11.65-30.95 13.85-30.95L13.85-30.95Q19.5-30.95 22.65-28.93 25.8-26.9 25.8-22.75L25.8-22.75Q25.8-20.65 24.78-18.88 23.75-17.1 21.48-16.03 19.2-14.95 15.4-14.95L15.4-14.95 14.95-17.45Q18.25-17.45 19.95-18.82 21.65-20.2 21.65-22.65L21.65-22.65Q21.65-25.15 19.68-26.38 17.7-27.6 13.85-27.6L13.85-27.6Q12.15-27.6 10.85-27.48 9.55-27.35 8.45-27.15L8.45-27.15 8.45-3.35Q9.65-3.1 11.23-2.95 12.8-2.8 14.4-2.8L14.4-2.8Q18.55-2.8 20.7-4.2 22.85-5.6 22.85-8.5L22.85-8.5Q22.85-11.1 20.93-12.63 19-14.15 15.25-14.15ZM38.45-27.1L38.45-14.9 44.2-14.9Q47.9-14.9 50-16.5 52.1-18.1 52.1-21.25L52.1-21.25Q52.1-24.35 49.9-25.95 47.7-27.55 43.6-27.55L43.6-27.55Q42.25-27.55 40.87-27.43 39.5-27.3 38.45-27.1L38.45-27.1ZM44.2-11.5L44.2-11.5 34.4-11.5 34.4-28.2Q34.4-29 34.82-29.43 35.25-29.85 36.05-30.1L36.05-30.1Q37.5-30.55 39.62-30.75 41.75-30.95 43.75-30.95L43.75-30.95Q50-30.95 53.1-28.4 56.2-25.85 56.2-21.25L56.2-21.25Q56.2-18.3 54.85-16.1 53.5-13.9 50.85-12.7 48.2-11.5 44.2-11.5ZM52.5-1.3L44.3-12.8 47.3-14.3Q48.7-12.55 50.2-10.65 51.7-8.75 53.1-6.95 54.5-5.15 55.6-3.73 56.7-2.3 57.3-1.5L57.3-1.5Q57.1-0.65 56.42-0.15 55.75 0.35 55.05 0.35L55.05 0.35Q54.2 0.35 53.65-0.08 53.1-0.5 52.5-1.3L52.5-1.3ZM34.4-1.6L34.4-12.6 38.5-12.6 38.5-0.1Q38.2 0 37.7 0.13 37.2 0.25 36.6 0.25L36.6 0.25Q35.5 0.25 34.95-0.2 34.4-0.65 34.4-1.6L34.4-1.6Z" opacity="1" transform="matrix(1,0,0,1,0,0)" fill="white" class="wordmark-text-0" id="SvgjsPath2391"></path></svg></g></svg></g></svg></g></svg></g></svg></g></svg></g></svg></g><g><path d="M245.816 0c68.262 0 123.6 55.338 123.6 123.6 0 68.262-55.338 123.6-123.6 123.6-32.766 0-62.555-12.75-84.675-33.56h9.911c20.276 16.855 46.336 26.99 74.764 26.991 64.634 0 117.031-52.397 117.031-117.031 0-64.634-52.397-117.031-117.031-117.031-28.428 0-54.488 10.136-74.764 26.991l-9.911 0c22.12-20.809 51.908-33.56 84.675-33.56z" fill="black" stroke="transparent"></path></g></svg></g><defs><mask></mask></defs></svg><rect width="395.52" height="247.2" fill="black" stroke="none" visibility="hidden"></rect></g></mask><linearGradient x1="0.054" x2="0.941" y1="0.5" y2="0.5" id="fbbd61bd-c8cc-4173-bad4-0af7aba1999f"><stop stop-color="#8c8c8c" offset="0"></stop><stop stop-color="#e3e4e5" offset="0.498"></stop><stop stop-color="#8c8c8c" offset="1"></stop></linearGradient><rect width="395.52" height="247.20000000000005" fill="url(#fbbd61bd-c8cc-4173-bad4-0af7aba1999f)" mask="url(#182e506b-8a7f-44b9-9a36-228f411460e9)" data-fill-palette-color="primary"></rect><mask id="d4013187-e438-4867-b47e-e75847db8f60"><g id="SvgjsG2417"><svg viewBox="0 0 395.52 247.2" height="247.2" width="395.52"><g><svg></svg></g><g><svg viewBox="0 0 395.52 247.2" height="247.2" width="395.52"><g transform="matrix(1,0,0,1,75.54432000000001,50.75621721854306)"><svg viewBox="0 0 244.43135999999996 145.68756556291387" height="145.68756556291387" width="244.43135999999996"><g><svg viewBox="0 0 244.43135999999996 145.68756556291387" height="145.68756556291387" width="244.43135999999996"><g><svg viewBox="0 0 244.43136 145.6875655629139" height="145.68756556291387" width="244.43135999999996"><g><svg viewBox="0 0 244.43136 145.6875655629139" height="145.6875655629139" width="244.43136"><g id="SvgjsG2416"><svg viewBox="0 0 244.43136 145.6875655629139" height="145.6875655629139" width="244.43136" id="SvgjsSvg2415"><g><svg viewBox="0 0 244.43136 145.6875655629139" height="145.6875655629139" width="244.43136"><g transform="matrix(1,0,0,1,0,0)"><svg width="244.43136" viewBox="4.45 -30.95 52.849999999999994 31.5" height="145.6875655629139" data-palette-color="url(#fbbd61bd-c8cc-4173-bad4-0af7aba1999f)"></svg></g></svg></g></svg></g></svg></g></svg></g></svg></g></svg></g><g><path d="M245.816 0c68.262 0 123.6 55.338 123.6 123.6 0 68.262-55.338 123.6-123.6 123.6-32.766 0-62.555-12.75-84.675-33.56h9.911c20.276 16.855 46.336 26.99 74.764 26.991 64.634 0 117.031-52.397 117.031-117.031 0-64.634-52.397-117.031-117.031-117.031-28.428 0-54.488 10.136-74.764 26.991l-9.911 0c22.12-20.809 51.908-33.56 84.675-33.56z" fill="white" stroke="transparent"></path></g></svg></g><defs><mask></mask></defs><mask><g id="SvgjsG2414"><svg viewBox="0 0 395.52 247.2" height="247.2" width="395.52"><g><svg></svg></g><g><svg viewBox="0 0 395.52 247.2" height="247.2" width="395.52"><g transform="matrix(1,0,0,1,75.54432000000001,50.75621721854306)"><svg viewBox="0 0 244.43135999999996 145.68756556291387" height="145.68756556291387" width="244.43135999999996"><g><svg viewBox="0 0 244.43135999999996 145.68756556291387" height="145.68756556291387" width="244.43135999999996"><g><svg viewBox="0 0 244.43136 145.6875655629139" height="145.68756556291387" width="244.43135999999996"><g><svg viewBox="0 0 244.43136 145.6875655629139" height="145.6875655629139" width="244.43136"><g id="SvgjsG2413"><svg viewBox="0 0 244.43136 145.6875655629139" height="145.6875655629139" width="244.43136" id="SvgjsSvg2412"><g><svg viewBox="0 0 244.43136 145.6875655629139" height="145.6875655629139" width="244.43136"><g transform="matrix(1,0,0,1,0,0)"><svg width="244.43136" viewBox="4.45 -30.95 52.849999999999994 31.5" height="145.6875655629139" data-palette-color="url(#fbbd61bd-c8cc-4173-bad4-0af7aba1999f)"><path d="M7.25-17.45L21-17.45 21-14.15 7.25-14.15 7.25-17.45ZM15.25-14.15L15.25-14.15 16.85-16.65Q20.25-16.65 22.5-15.53 24.75-14.4 25.88-12.55 27-10.7 27-8.4L27-8.4Q27-3.85 23.73-1.65 20.45 0.55 14.4 0.55L14.4 0.55Q13.05 0.55 11.7 0.48 10.35 0.4 9.05 0.2 7.75 0 6.55-0.3L6.55-0.3Q4.45-0.9 4.45-2.6L4.45-2.6 4.45-28.2Q4.45-29 4.88-29.45 5.3-29.9 6.1-30.1L6.1-30.1Q7.8-30.6 9.73-30.78 11.65-30.95 13.85-30.95L13.85-30.95Q19.5-30.95 22.65-28.93 25.8-26.9 25.8-22.75L25.8-22.75Q25.8-20.65 24.78-18.88 23.75-17.1 21.48-16.03 19.2-14.95 15.4-14.95L15.4-14.95 14.95-17.45Q18.25-17.45 19.95-18.82 21.65-20.2 21.65-22.65L21.65-22.65Q21.65-25.15 19.68-26.38 17.7-27.6 13.85-27.6L13.85-27.6Q12.15-27.6 10.85-27.48 9.55-27.35 8.45-27.15L8.45-27.15 8.45-3.35Q9.65-3.1 11.23-2.95 12.8-2.8 14.4-2.8L14.4-2.8Q18.55-2.8 20.7-4.2 22.85-5.6 22.85-8.5L22.85-8.5Q22.85-11.1 20.93-12.63 19-14.15 15.25-14.15ZM38.45-27.1L38.45-14.9 44.2-14.9Q47.9-14.9 50-16.5 52.1-18.1 52.1-21.25L52.1-21.25Q52.1-24.35 49.9-25.95 47.7-27.55 43.6-27.55L43.6-27.55Q42.25-27.55 40.87-27.43 39.5-27.3 38.45-27.1L38.45-27.1ZM44.2-11.5L44.2-11.5 34.4-11.5 34.4-28.2Q34.4-29 34.82-29.43 35.25-29.85 36.05-30.1L36.05-30.1Q37.5-30.55 39.62-30.75 41.75-30.95 43.75-30.95L43.75-30.95Q50-30.95 53.1-28.4 56.2-25.85 56.2-21.25L56.2-21.25Q56.2-18.3 54.85-16.1 53.5-13.9 50.85-12.7 48.2-11.5 44.2-11.5ZM52.5-1.3L44.3-12.8 47.3-14.3Q48.7-12.55 50.2-10.65 51.7-8.75 53.1-6.95 54.5-5.15 55.6-3.73 56.7-2.3 57.3-1.5L57.3-1.5Q57.1-0.65 56.42-0.15 55.75 0.35 55.05 0.35L55.05 0.35Q54.2 0.35 53.65-0.08 53.1-0.5 52.5-1.3L52.5-1.3ZM34.4-1.6L34.4-12.6 38.5-12.6 38.5-0.1Q38.2 0 37.7 0.13 37.2 0.25 36.6 0.25L36.6 0.25Q35.5 0.25 34.95-0.2 34.4-0.65 34.4-1.6L34.4-1.6Z" opacity="1" transform="matrix(1,0,0,1,0,0)" fill="black" class="wordmark-text-0" id="SvgjsPath2411"></path></svg></g></svg></g></svg></g></svg></g></svg></g></svg></g></svg></g><g><path d="M245.816 0c68.262 0 123.6 55.338 123.6 123.6 0 68.262-55.338 123.6-123.6 123.6-32.766 0-62.555-12.75-84.675-33.56h9.911c20.276 16.855 46.336 26.99 74.764 26.991 64.634 0 117.031-52.397 117.031-117.031 0-64.634-52.397-117.031-117.031-117.031-28.428 0-54.488 10.136-74.764 26.991l-9.911 0c22.12-20.809 51.908-33.56 84.675-33.56z" fill="black" stroke="transparent"></path></g></svg></g><defs><mask></mask></defs></svg><rect width="395.52" height="247.2" fill="black" stroke="none" visibility="hidden"></rect></g></mask></svg><rect width="395.52" height="247.2" fill="black" stroke="none" visibility="hidden"></rect></g></mask><linearGradient x1="0.054" x2="0.941" y1="0.5" y2="0.5" id="65f815c3-4de4-4549-b4d7-02c5d48dad7a"><stop stop-color="#8c8c8c" offset="0"></stop><stop stop-color="#e3e4e5" offset="0.498"></stop><stop stop-color="#8c8c8c" offset="1"></stop></linearGradient></svg><rect width="395.52" height="247.2" fill="none" stroke="none" visibility="hidden"></rect></g></svg></g></svg>